<svg width="128" height="128" viewBox="0 0 128 128" fill="none" xmlns="http://www.w3.org/2000/svg">
<path d="M5.81016 113V99H9.77016V113H5.81016ZM17.9475 113.18C16.7475 113.18 15.6742 112.94 14.7275 112.46C13.7942 111.98 13.0608 111.32 12.5275 110.48C11.9942 109.627 11.7275 108.653 11.7275 107.56C11.7275 106.467 11.9942 105.5 12.5275 104.66C13.0608 103.82 13.7942 103.167 14.7275 102.7C15.6742 102.22 16.7475 101.98 17.9475 101.98C19.1742 101.98 20.2342 102.24 21.1275 102.76C22.0208 103.28 22.6542 104.013 23.0275 104.96L20.0875 106.46C19.8342 105.953 19.5208 105.587 19.1475 105.36C18.7742 105.12 18.3675 105 17.9275 105C17.4875 105 17.0875 105.1 16.7275 105.3C16.3675 105.5 16.0808 105.793 15.8675 106.18C15.6675 106.553 15.5675 107.013 15.5675 107.56C15.5675 108.12 15.6675 108.593 15.8675 108.98C16.0808 109.367 16.3675 109.66 16.7275 109.86C17.0875 110.06 17.4875 110.16 17.9275 110.16C18.3675 110.16 18.7742 110.047 19.1475 109.82C19.5208 109.58 19.8342 109.207 20.0875 108.7L23.0275 110.2C22.6542 111.147 22.0208 111.88 21.1275 112.4C20.2342 112.92 19.1742 113.18 17.9475 113.18ZM29.7811 113.18C28.5944 113.18 27.5411 112.94 26.6211 112.46C25.7011 111.98 24.9744 111.32 24.4411 110.48C23.9211 109.627 23.6611 108.653 23.6611 107.56C23.6611 106.467 23.9211 105.5 24.4411 104.66C24.9744 103.82 25.7011 103.167 26.6211 102.7C27.5411 102.22 28.5944 101.98 29.7811 101.98C30.9678 101.98 32.0211 102.22 32.9411 102.7C33.8744 103.167 34.6011 103.82 35.1211 104.66C35.6411 105.5 35.9011 106.467 35.9011 107.56C35.9011 108.653 35.6411 109.627 35.1211 110.48C34.6011 111.32 33.8744 111.98 32.9411 112.46C32.0211 112.94 30.9678 113.18 29.7811 113.18ZM29.7811 110.16C30.2211 110.16 30.6078 110.06 30.9411 109.86C31.2878 109.66 31.5611 109.367 31.7611 108.98C31.9611 108.58 32.0611 108.107 32.0611 107.56C32.0611 107.013 31.9611 106.553 31.7611 106.18C31.5611 105.793 31.2878 105.5 30.9411 105.3C30.6078 105.1 30.2211 105 29.7811 105C29.3544 105 28.9678 105.1 28.6211 105.3C28.2878 105.5 28.0144 105.793 27.8011 106.18C27.6011 106.553 27.5011 107.013 27.5011 107.56C27.5011 108.107 27.6011 108.58 27.8011 108.98C28.0144 109.367 28.2878 109.66 28.6211 109.86C28.9678 110.06 29.3544 110.16 29.7811 110.16ZM44.7214 101.98C45.5614 101.98 46.3214 102.153 47.0014 102.5C47.6814 102.833 48.2147 103.353 48.6014 104.06C49.0014 104.767 49.2014 105.68 49.2014 106.8V113H45.4014V107.42C45.4014 106.647 45.2414 106.087 44.9214 105.74C44.6147 105.38 44.1814 105.2 43.6214 105.2C43.2214 105.2 42.8547 105.293 42.5214 105.48C42.1881 105.653 41.9281 105.927 41.7414 106.3C41.5547 106.673 41.4614 107.16 41.4614 107.76V113H37.6614V102.16H41.2814V105.24L40.5814 104.34C40.9947 103.553 41.5614 102.967 42.2814 102.58C43.0014 102.18 43.8147 101.98 44.7214 101.98ZM51.5872 113V102.16H55.3872V113H51.5872ZM53.4872 100.96C52.7939 100.96 52.2339 100.767 51.8072 100.38C51.3805 99.9933 51.1672 99.5133 51.1672 98.94C51.1672 98.3667 51.3805 97.8867 51.8072 97.5C52.2339 97.1133 52.7939 96.92 53.4872 96.92C54.1805 96.92 54.7405 97.1067 55.1672 97.48C55.5939 97.84 55.8072 98.3067 55.8072 98.88C55.8072 99.48 55.5939 99.98 55.1672 100.38C54.7539 100.767 54.1939 100.96 53.4872 100.96ZM58.2967 113V102.28C58.2967 100.973 58.6834 99.9333 59.4567 99.16C60.2434 98.3733 61.3634 97.98 62.8167 97.98C63.2834 97.98 63.7434 98.0267 64.1967 98.12C64.6501 98.2133 65.0301 98.3533 65.3367 98.54L64.3967 101.22C64.2367 101.127 64.0567 101.053 63.8567 101C63.6567 100.933 63.4567 100.9 63.2567 100.9C62.8567 100.9 62.5434 101.02 62.3167 101.26C62.1034 101.487 61.9967 101.84 61.9967 102.32V103.1L62.0967 104.68V113H58.2967ZM56.7167 105.4V102.56H64.5767V105.4H56.7167ZM68.037 117.06C67.4637 117.06 66.8837 116.967 66.297 116.78C65.7237 116.607 65.257 116.373 64.897 116.08L66.217 113.42C66.4437 113.62 66.7037 113.773 66.997 113.88C67.3037 114 67.6037 114.06 67.897 114.06C68.3104 114.06 68.637 113.967 68.877 113.78C69.117 113.593 69.3237 113.3 69.497 112.9L69.997 111.64L70.297 111.26L73.977 102.16H77.597L72.917 113.44C72.5437 114.373 72.1104 115.1 71.617 115.62C71.137 116.153 70.597 116.527 69.997 116.74C69.4104 116.953 68.757 117.06 68.037 117.06ZM69.517 113.46L64.737 102.16H68.637L72.157 110.92L69.517 113.46ZM78.1895 111.574L79.0195 110.256C79.4427 110.601 79.8659 110.887 80.2891 111.115C80.7122 111.343 81.1419 111.512 81.5781 111.623C82.0208 111.734 82.4701 111.789 82.9258 111.789C83.5898 111.789 84.1693 111.678 84.6641 111.457C85.1654 111.236 85.556 110.93 85.8359 110.539C86.1159 110.142 86.2559 109.686 86.2559 109.172C86.2559 108.612 86.0964 108.15 85.7773 107.785C85.4648 107.414 85.0579 107.098 84.5566 106.838C84.0553 106.577 83.5215 106.33 82.9551 106.096C82.4798 105.894 82.0078 105.679 81.5391 105.451C81.0703 105.223 80.6439 104.96 80.2598 104.66C79.8822 104.354 79.5794 103.986 79.3516 103.557C79.1237 103.127 79.0098 102.609 79.0098 102.004C79.0098 101.229 79.2051 100.546 79.5957 99.9531C79.9863 99.3607 80.5267 98.8984 81.2168 98.5664C81.9134 98.2344 82.7142 98.0684 83.6191 98.0684C84.2311 98.0684 84.8464 98.1497 85.4648 98.3125C86.0833 98.4688 86.6823 98.6999 87.2617 99.0059L86.5586 100.412C86.1029 100.145 85.6243 99.9401 85.123 99.7969C84.6283 99.6536 84.14 99.582 83.6582 99.582C83.0853 99.582 82.5807 99.6797 82.1445 99.875C81.7148 100.064 81.3763 100.331 81.1289 100.676C80.888 101.014 80.7676 101.411 80.7676 101.867C80.7676 102.375 80.9141 102.801 81.207 103.146C81.5065 103.492 81.8906 103.791 82.3594 104.045C82.8346 104.292 83.3359 104.533 83.8633 104.768C84.3646 104.989 84.8594 105.223 85.3477 105.471C85.8424 105.712 86.2884 105.998 86.6855 106.33C87.0892 106.656 87.4115 107.046 87.6523 107.502C87.8932 107.958 88.0137 108.508 88.0137 109.152C88.0137 109.979 87.8053 110.705 87.3887 111.33C86.972 111.949 86.3861 112.43 85.6309 112.775C84.8822 113.12 84.0033 113.293 82.9941 113.293C82.1087 113.293 81.2656 113.15 80.4648 112.863C79.6641 112.577 78.9056 112.147 78.1895 111.574ZM95.6309 112.766C94.9863 113.052 94.3581 113.195 93.7461 113.195C93.1602 113.195 92.6458 113.068 92.2031 112.814C91.7604 112.554 91.4154 112.193 91.168 111.73C90.9206 111.262 90.7969 110.718 90.7969 110.1V104.67H89.0879V103.234H90.875V100.793H92.3984V103.234H95.3184V104.67H92.3984V109.807C92.3984 110.393 92.5547 110.865 92.8672 111.223C93.1862 111.581 93.6029 111.76 94.1172 111.76C94.5339 111.76 94.9505 111.636 95.3672 111.389L95.6309 112.766ZM100.875 117.883H99.127L101.178 112.922L96.5098 103.234H98.2773L101.949 111.076L105.191 103.234H106.93L100.875 117.883ZM110.689 113H108.99V98.3516H110.689V113ZM122.281 111.799C121.07 112.73 119.736 113.195 118.277 113.195C117.262 113.195 116.35 112.967 115.543 112.512C114.736 112.056 114.098 111.438 113.629 110.656C113.167 109.868 112.936 108.98 112.936 107.99C112.936 107.04 113.15 106.193 113.58 105.451C114.01 104.702 114.599 104.113 115.348 103.684C116.096 103.254 116.946 103.039 117.896 103.039C118.873 103.039 119.732 103.273 120.475 103.742C121.223 104.211 121.806 104.862 122.223 105.695C122.639 106.529 122.848 107.492 122.848 108.586V108.898H114.674C114.791 109.471 115.025 109.969 115.377 110.393C115.729 110.816 116.168 111.145 116.695 111.379C117.229 111.613 117.822 111.73 118.473 111.73C119.592 111.73 120.615 111.363 121.539 110.627L122.281 111.799ZM114.615 107.531H121.334C121.262 106.926 121.074 106.398 120.768 105.949C120.468 105.493 120.077 105.139 119.596 104.885C119.12 104.631 118.583 104.504 117.984 104.504C117.379 104.504 116.832 104.631 116.344 104.885C115.862 105.139 115.468 105.493 115.162 105.949C114.863 106.398 114.68 106.926 114.615 107.531Z" fill="white"/>
<path fill-rule="evenodd" clip-rule="evenodd" d="M35.5 13.6875C33.9467 13.6875 32.6875 14.9467 32.6875 16.5V51.5C32.6875 53.0533 33.9467 54.3125 35.5 54.3125H70.5C72.0533 54.3125 73.3125 53.0533 73.3125 51.5V16.5C73.3125 14.9467 72.0533 13.6875 70.5 13.6875H35.5ZM64.5215 27.8132C65.1317 27.203 65.1317 26.2137 64.5215 25.6035C63.9112 24.9933 62.9221 24.9933 62.3119 25.6035L48.8333 39.0819L43.6882 33.9369C43.078 33.3267 42.0887 33.3267 41.4785 33.9369C40.8683 34.5471 40.8683 35.5362 41.4785 36.1465L47.7285 42.3965C48.3387 43.0067 49.3279 43.0067 49.9381 42.3965L64.5215 27.8132Z" fill="white"/>
<path d="M59.3333 78.5833V39.4167C59.3333 38.7263 59.893 38.1667 60.5833 38.1667H84.8573C85.1888 38.1667 85.5067 38.2984 85.741 38.5328L92.3006 45.0922C92.535 45.3266 92.6667 45.6446 92.6667 45.9761V78.5833C92.6667 79.2737 92.1071 79.8333 91.4167 79.8333H60.5833C59.893 79.8333 59.3333 79.2737 59.3333 78.5833Z" stroke="white" stroke-width="4.16667" stroke-linecap="round" stroke-linejoin="round"/>
<path d="M84.3333 38.1667V45.25C84.3333 45.9404 84.8929 46.5 85.5833 46.5H92.6666" stroke="white" stroke-width="4.16667" stroke-linecap="round" stroke-linejoin="round"/>
</svg>
