<svg width="200" height="70" viewBox="0 0 200 70" fill="none" xmlns="http://www.w3.org/2000/svg">
<rect width="200" height="70" rx="10" fill="#78C1AC"/>
<path d="M7.39625 47V24.6H13.7323V47H7.39625ZM26.816 47.288C24.896 47.288 23.1787 46.904 21.664 46.136C20.1707 45.368 18.9973 44.312 18.144 42.968C17.2907 41.6027 16.864 40.0453 16.864 38.296C16.864 36.5467 17.2907 35 18.144 33.656C18.9973 32.312 20.1707 31.2667 21.664 30.52C23.1787 29.752 24.896 29.368 26.816 29.368C28.7787 29.368 30.4747 29.784 31.904 30.616C33.3333 31.448 34.3467 32.6213 34.944 34.136L30.24 36.536C29.8347 35.7253 29.3333 35.1387 28.736 34.776C28.1387 34.392 27.488 34.2 26.784 34.2C26.08 34.2 25.44 34.36 24.864 34.68C24.288 35 23.8293 35.4693 23.488 36.088C23.168 36.6853 23.008 37.4213 23.008 38.296C23.008 39.192 23.168 39.9493 23.488 40.568C23.8293 41.1867 24.288 41.656 24.864 41.976C25.44 42.296 26.08 42.456 26.784 42.456C27.488 42.456 28.1387 42.2747 28.736 41.912C29.3333 41.528 29.8347 40.9307 30.24 40.12L34.944 42.52C34.3467 44.0347 33.3333 45.208 31.904 46.04C30.4747 46.872 28.7787 47.288 26.816 47.288ZM45.7498 47.288C43.8511 47.288 42.1658 46.904 40.6938 46.136C39.2218 45.368 38.0591 44.312 37.2057 42.968C36.3738 41.6027 35.9578 40.0453 35.9578 38.296C35.9578 36.5467 36.3738 35 37.2057 33.656C38.0591 32.312 39.2218 31.2667 40.6938 30.52C42.1658 29.752 43.8511 29.368 45.7498 29.368C47.6484 29.368 49.3338 29.752 50.8058 30.52C52.2991 31.2667 53.4618 32.312 54.2938 33.656C55.1258 35 55.5418 36.5467 55.5418 38.296C55.5418 40.0453 55.1258 41.6027 54.2938 42.968C53.4618 44.312 52.2991 45.368 50.8058 46.136C49.3338 46.904 47.6484 47.288 45.7498 47.288ZM45.7498 42.456C46.4538 42.456 47.0724 42.296 47.6058 41.976C48.1604 41.656 48.5978 41.1867 48.9178 40.568C49.2378 39.928 49.3978 39.1707 49.3978 38.296C49.3978 37.4213 49.2378 36.6853 48.9178 36.088C48.5978 35.4693 48.1604 35 47.6058 34.68C47.0724 34.36 46.4538 34.2 45.7498 34.2C45.0671 34.2 44.4484 34.36 43.8938 34.68C43.3604 35 42.9231 35.4693 42.5818 36.088C42.2618 36.6853 42.1018 37.4213 42.1018 38.296C42.1018 39.1707 42.2618 39.928 42.5818 40.568C42.9231 41.1867 43.3604 41.656 43.8938 41.976C44.4484 42.296 45.0671 42.456 45.7498 42.456ZM69.6543 29.368C70.9983 29.368 72.2143 29.6453 73.3022 30.2C74.3903 30.7333 75.2436 31.5653 75.8623 32.696C76.5023 33.8267 76.8223 35.288 76.8223 37.08V47H70.7423V38.072C70.7423 36.8347 70.4863 35.9387 69.9743 35.384C69.4836 34.808 68.7903 34.52 67.8943 34.52C67.2543 34.52 66.6676 34.6693 66.1343 34.968C65.6009 35.2453 65.1849 35.6827 64.8863 36.28C64.5876 36.8773 64.4383 37.656 64.4383 38.616V47H58.3583V29.656H64.1503V34.584L63.0303 33.144C63.6916 31.8853 64.5983 30.9467 65.7503 30.328C66.9023 29.688 68.2036 29.368 69.6543 29.368ZM80.6395 47V29.656H86.7195V47H80.6395ZM83.6795 27.736C82.5702 27.736 81.6742 27.4267 80.9915 26.808C80.3088 26.1893 79.9675 25.4213 79.9675 24.504C79.9675 23.5867 80.3088 22.8187 80.9915 22.2C81.6742 21.5813 82.5702 21.272 83.6795 21.272C84.7888 21.272 85.6848 21.5707 86.3675 22.168C87.0502 22.744 87.3915 23.4907 87.3915 24.408C87.3915 25.368 87.0502 26.168 86.3675 26.808C85.7062 27.4267 84.8102 27.736 83.6795 27.736ZM91.3748 47V29.848C91.3748 27.7573 91.9934 26.0933 93.2308 24.856C94.4894 23.5973 96.2814 22.968 98.6068 22.968C99.3534 22.968 100.089 23.0427 100.815 23.192C101.54 23.3413 102.148 23.5653 102.639 23.864L101.135 28.152C100.879 28.0027 100.591 27.8853 100.271 27.8C99.9508 27.6933 99.6308 27.64 99.3108 27.64C98.6708 27.64 98.1694 27.832 97.8068 28.216C97.4654 28.5787 97.2948 29.144 97.2948 29.912V31.16L97.4548 33.688V47H91.3748ZM88.8468 34.84V30.296H101.423V34.84H88.8468ZM106.959 53.496C106.042 53.496 105.114 53.3467 104.175 53.048C103.258 52.7707 102.511 52.3973 101.935 51.928L104.047 47.672C104.41 47.992 104.826 48.2373 105.295 48.408C105.786 48.6 106.266 48.696 106.735 48.696C107.397 48.696 107.919 48.5467 108.303 48.248C108.687 47.9493 109.018 47.48 109.295 46.84L110.095 44.824L110.575 44.216L116.463 29.656H122.255L114.767 47.704C114.17 49.1973 113.477 50.36 112.687 51.192C111.919 52.0453 111.055 52.6427 110.095 52.984C109.157 53.3253 108.111 53.496 106.959 53.496ZM109.327 47.736L101.679 29.656H107.919L113.551 43.672L109.327 47.736ZM123.203 44.7188L124.531 42.6094C125.208 43.1615 125.885 43.6198 126.562 43.9844C127.24 44.349 127.927 44.6198 128.625 44.7969C129.333 44.974 130.052 45.0625 130.781 45.0625C131.844 45.0625 132.771 44.8854 133.562 44.5312C134.365 44.1771 134.99 43.6875 135.438 43.0625C135.885 42.4271 136.109 41.6979 136.109 40.875C136.109 39.9792 135.854 39.2396 135.344 38.6562C134.844 38.0625 134.193 37.5573 133.391 37.1406C132.589 36.724 131.734 36.3281 130.828 35.9531C130.068 35.6302 129.312 35.2865 128.562 34.9219C127.812 34.5573 127.13 34.1354 126.516 33.6562C125.911 33.1667 125.427 32.5781 125.062 31.8906C124.698 31.2031 124.516 30.375 124.516 29.4062C124.516 28.1667 124.828 27.0729 125.453 26.125C126.078 25.1771 126.943 24.4375 128.047 23.9062C129.161 23.375 130.443 23.1094 131.891 23.1094C132.87 23.1094 133.854 23.2396 134.844 23.5C135.833 23.75 136.792 24.1198 137.719 24.6094L136.594 26.8594C135.865 26.4323 135.099 26.1042 134.297 25.875C133.505 25.6458 132.724 25.5312 131.953 25.5312C131.036 25.5312 130.229 25.6875 129.531 26C128.844 26.3021 128.302 26.7292 127.906 27.2812C127.521 27.8229 127.328 28.4583 127.328 29.1875C127.328 30 127.562 30.6823 128.031 31.2344C128.51 31.7865 129.125 32.2656 129.875 32.6719C130.635 33.0677 131.438 33.4531 132.281 33.8281C133.083 34.1823 133.875 34.5573 134.656 34.9531C135.448 35.3385 136.161 35.7969 136.797 36.3281C137.443 36.849 137.958 37.474 138.344 38.2031C138.729 38.9323 138.922 39.8125 138.922 40.8438C138.922 42.1667 138.589 43.3281 137.922 44.3281C137.255 45.3177 136.318 46.0885 135.109 46.6406C133.911 47.1927 132.505 47.4688 130.891 47.4688C129.474 47.4688 128.125 47.2396 126.844 46.7812C125.562 46.3229 124.349 45.6354 123.203 44.7188ZM151.109 46.625C150.078 47.0833 149.073 47.3125 148.094 47.3125C147.156 47.3125 146.333 47.1094 145.625 46.7031C144.917 46.2865 144.365 45.7083 143.969 44.9688C143.573 44.2188 143.375 43.349 143.375 42.3594V33.6719H140.641V31.375H143.5V27.4688H145.938V31.375H150.609V33.6719H145.938V41.8906C145.938 42.8281 146.188 43.5833 146.688 44.1562C147.198 44.7292 147.865 45.0156 148.688 45.0156C149.354 45.0156 150.021 44.8177 150.688 44.4219L151.109 46.625ZM159.5 54.8125H156.703L159.984 46.875L152.516 31.375H155.344L161.219 43.9219L166.406 31.375H169.188L159.5 54.8125ZM175.203 47H172.484V23.5625H175.203V47ZM193.75 45.0781C191.812 46.5677 189.677 47.3125 187.344 47.3125C185.719 47.3125 184.26 46.9479 182.969 46.2188C181.677 45.4896 180.656 44.5 179.906 43.25C179.167 41.9896 178.797 40.5677 178.797 38.9844C178.797 37.4635 179.141 36.1094 179.828 34.9219C180.516 33.724 181.458 32.7812 182.656 32.0938C183.854 31.4062 185.214 31.0625 186.734 31.0625C188.297 31.0625 189.672 31.4375 190.859 32.1875C192.057 32.9375 192.99 33.9792 193.656 35.3125C194.323 36.6458 194.656 38.1875 194.656 39.9375V40.4375H181.578C181.766 41.3542 182.141 42.151 182.703 42.8281C183.266 43.5052 183.969 44.0312 184.812 44.4062C185.667 44.7812 186.615 44.9688 187.656 44.9688C189.448 44.9688 191.083 44.3802 192.562 43.2031L193.75 45.0781ZM181.484 38.25H192.234C192.12 37.2812 191.818 36.4375 191.328 35.7188C190.849 34.9896 190.224 34.4219 189.453 34.0156C188.693 33.6094 187.833 33.4062 186.875 33.4062C185.906 33.4062 185.031 33.6094 184.25 34.0156C183.479 34.4219 182.849 34.9896 182.359 35.7188C181.88 36.4375 181.589 37.2812 181.484 38.25Z" fill="white"/>
</svg>
